# xmcd
#
# Track frame offsets: 
#        150
#        14987
#        29642
#        42119
#        56168
#        69819
#        84991
#        100548
#        115741
#        131342
#        144243
#        159373
#        173939
#        187984
#        202647
#        217165
#        229895
#        243456
#        255800
#        268519
#        281706
#        296255
#        308915
#        321922
#
# Disc length: 4489 seconds
#
# Revision: 0
# Processed by: cddbd v1.5.2PL0 Copyright (c) Steve Scherf et al.
# Submitted via: ExactAudioCopy v0.95b4
#
DISCID=4d118718
DTITLE=Leroy Carr and Scrapper Blackwell - Hoa Long Has That Evening Tra
DTITLE=in Been Gone ? (B)
DYEAR=2008
DGENRE=Pre-War Blues
TTITLE0=That's All Right For You 
TTITLE1=Wrong Man Blues 
TTITLE2=Naptown Blues
TTITLE3=The New How Long Blues
TTITLE4=Love Rides All 
TTITLE5=I Know That I'll Be Blue 
TTITLE6=Gettin' All Wet 
TTITLE7=Rainy Day Blues
TTITLE8=Blue With The Blues
TTITLE9=Just Worryin' Blues 
TTITLE10=Baby You Done Put That Thing On Me 
TTITLE11=I Won't Miss You When You're Gone 
TTITLE12=Don't You Get Tired 
TTITLE13=I'm Going Back to Tennessee 
TTITLE14=Christmas in Jail 
TTITLE15=Prison Cell Blues 
TTITLE16=That's Tellin' 'Em 
TTITLE17=Papa Wants a Cookie 
TTITLE18=Memphis Town
TTITLE19=Don't Say Goodbye 
TTITLE20=I Ain't Got No Gal 
TTITLE21=Goodbye Blues 
TTITLE22=The Dirty Dozen 
TTITLE23=Workhouse Blues 
EXTD=
EXTT0=
EXTT1=
EXTT2=
EXTT3=
EXTT4=
EXTT5=
EXTT6=
EXTT7=
EXTT8=
EXTT9=
EXTT10=
EXTT11=
EXTT12=
EXTT13=
EXTT14=
EXTT15=
EXTT16=
EXTT17=
EXTT18=
EXTT19=
EXTT20=
EXTT21=
EXTT22=
EXTT23=
PLAYORDER=
